<?xml version="1.0" encoding="UTF-8"?>
<svg width="1200pt" height="1200pt" version="1.1" viewBox="0 0 1200 1200" xmlns="http://www.w3.org/2000/svg">
 <path d="m1170 924v-648c0-135.6-110.4-246-246-246h-648c-135.6 0-246 110.4-246 246v648c0 135.6 110.4 246 246 246h648c135.6 0 246-110.4 246-246zm-615.6-22.801-186-184.8c-13.199-13.199-19.199-30-19.199-45.602 0-16.801 6-33.602 19.199-45.602 25.199-25.199 67.199-25.199 92.398 0l73.199 73.199 0.003906-354c0-36 28.801-64.801 64.801-64.801s64.801 28.801 64.801 64.801v352.8l73.199-73.199c25.199-25.199 67.199-25.199 92.398 0s25.199 67.199 0 92.398l-183.6 184.8c-25.203 25.199-66 25.199-91.203 0z"/>
</svg>
