<svg width="700" height="700" xmlns="http://www.w3.org/2000/svg" version="1.1"><rect id="backgroundrect" width="100%" height="100%" x="0" y="0" fill="none" stroke="none"/>
 <g style="" class="currentLayer">
  <title>Layer 1</title>
  <path id="svg_1" fill-rule="evenodd" d="m132.21,567.79c120.28,120.28 315.3,120.28 435.58,0s120.28,-315.3 0,-435.58s-315.3,-120.28 -435.58,0s-120.28,315.3 0,435.58zm257.39,-217.79l69.297,-69.297l-39.598,-39.598l-69.297,69.297l-69.297,-69.297l-39.598,39.598l69.297,69.297l-69.297,69.297l39.598,39.598l69.297,-69.297l69.297,69.297l39.598,-39.598l-69.297,-69.297zm-217.79,178.19c98.414,98.41 257.97,98.41 356.38,0c98.41,-98.414 98.41,-257.97 0,-356.38c-98.414,-98.41 -257.97,-98.41 -356.38,0c-98.41,98.414 -98.41,257.97 0,356.38z" fill="none"/>
  <g id="svg_2" class="selected" fill="#eb1a1a" fill-opacity="1" opacity="1">
   <path stroke="#000" fill="#eb1a1a" fill-rule="evenodd" d="m132.21,567.79c120.28,120.28 315.3,120.28 435.58,0s120.28,-315.3 0,-435.58s-315.3,-120.28 -435.58,0s-120.28,315.3 0,435.58zm257.39,-217.79l69.297,-69.297l-39.598,-39.598l-69.297,69.297l-69.297,-69.297l-39.598,39.598l69.297,69.297l-69.297,69.297l39.598,39.598l69.297,-69.297l69.297,69.297l39.598,-39.598l-69.297,-69.297zm-217.79,178.19c98.414,98.41 257.97,98.41 356.38,0c98.41,-98.414 98.41,-257.97 0,-356.38c-98.414,-98.41 -257.97,-98.41 -356.38,0c-98.41,98.414 -98.41,257.97 0,356.38z" id="svg_3" fill-opacity="1" opacity="1"/>
  </g>
 </g>

</svg>