<svg width="800" height="600" xmlns="http://www.w3.org/2000/svg"><rect id="backgroundrect" width="100%" height="100%" x="0" y="0" fill="none" stroke="none"/>

 <g style="" class="currentLayer">
  <title>Layer 1</title>
  <g id="svg_1" class="selected" opacity="1" fill="#1aeb1a" fill-opacity="1">
   <path stroke="#000" fill="#1aeb1a" fill-rule="evenodd" d="m400,608c170.11,0 308,-137.89 308,-308s-137.89,-308 -308,-308s-308,137.89 -308,308s137.89,308 308,308zm0,-56c139.18,0 252,-112.82 252,-252s-112.82,-252 -252,-252s-252,112.82 -252,252s112.82,252 252,252zm-27.004,-219.61l-59.398,-59.395l-39.598,39.598l98.996,98.992l29.699,-29.695l140.29,-140.29l-39.598,-39.598l-130.391,130.388z" id="svg_2" opacity="1" fill-opacity="1"/>
  </g>
 </g>
</svg>