<?xml version="1.0" encoding="UTF-8"?>
<svg width="1200pt" height="1200pt" version="1.1" viewBox="0 0 1200 1200" xmlns="http://www.w3.org/2000/svg">
 <g fill="#fff">
  <path d="m836.76 467.64-31.078 391.2c-1.8008 20.879-18.961 36.602-39.84 36.602h-315.84c-21 0-38.039-15.719-39.84-36.48l-31.078-391.32c-1.0781-13.199-12.48-23.039-25.801-22.078-13.199 1.0781-23.039 12.602-22.078 25.801l31.078 391.44c3.8398 45.961 41.52 80.641 87.719 80.641h315.96c46.078 0 83.762-34.68 87.719-80.762l31.078-391.32c1.0781-13.199-8.7617-24.719-22.078-25.801-13.32-0.96094-24.84 8.8789-25.918 22.078z"/>
  <path d="m483.84 330.6c13.199 0 24-10.801 24-24v-47.281c0-11.16 9-20.16 20.16-20.16h141.48c11.16 0 20.16 9 20.16 20.16v47.281c0 13.199 10.801 24 24 24s24-10.801 24-24v-47.281c0-37.559-30.602-68.16-68.16-68.16h-141.48c-37.559 0-68.16 30.602-68.16 68.16v47.281c0 13.32 10.68 24 24 24z"/>
  <path d="m288.48 414.84h622.92c13.199 0 24-10.801 24-24 0-13.199-10.801-24-24-24h-622.92c-13.199 0-24 10.801-24 24 0 13.199 10.801 24 24 24z"/>
 </g>
</svg>
