<?xml version="1.0" encoding="UTF-8"?>
<svg width="1200pt" height="1200pt" version="1.1" viewBox="0 0 1200 1200" xmlns="http://www.w3.org/2000/svg">
 <g fill="#fff">
  <path d="m365.41 566.06c0-39.336-31.895-71.172-71.172-71.172-39.336 0-71.184 31.836-71.184 71.172 0 39.289 31.848 71.184 71.184 71.184 39.277 0 71.172-31.895 71.172-71.184z"/>
  <path d="m210.1 938.66-12.758 25.465c116.44 58.066 252.37 62.734 372.5 12.758 56.746-23.594 116.18-40.199 176.93-49.297 88.895-13.32 179.68 2.1719 259.05 44.242l13.355-25.164c-84.793-44.902-181.74-61.453-276.66-47.242-63.098 9.4805-124.75 26.641-183.62 51.133-112.49 46.773-239.8 42.477-348.8-11.895z"/>
  <path d="m210.1 1033.1-12.758 25.477c116.44 58.055 252.37 62.723 372.5 12.742 56.746-23.594 116.18-40.152 176.93-49.262 88.895-13.355 179.68 2.1367 259.05 44.258l13.355-25.211c-84.793-44.953-181.74-61.512-276.66-47.242-63.098 9.4688-124.75 26.688-183.62 51.191-112.49 46.773-239.8 42.418-348.8-11.953z"/>
  <path d="m1007.7 870.07h-389.57l-101.61 48.84c-35.785 17.27-78.516 10.332-107.02-17.41l-80.242-78.121c-19.848-19.273-32.039-45.145-34.32-72.742-5.2188-63.133 41.762-118.51 104.84-123.73l89.102-7.3438c16.906-1.4023 33.109-7.2852 46.934-17.051l39.086-27.637c-85.559-56.543-166.46-119.79-242.04-189.14 134.72-76.441 256.16-174.19 359.58-289.57l21.199 19.039c-96.637 107.77-208.82 200.57-332.7 275.45 68.855 60.707 142.01 116.34 218.9 166.51l14.688-10.379 41.004-29.004 29.004 41.004c10.945 15.445 12.301 35.785 3.3945 52.547 105.2 60.91 215.98 111.59 330.83 151.37l-9.3594 26.941c-118.75-41.219-233.32-93.863-341.98-157.25l-96.023 67.992c-13.824 9.7695-30.023 15.695-46.871 17.062l-109.2 9.0117c-9.6719 0.80469-16.859 9.2539-16.043 18.887 0.34766 4.2461 2.2305 8.1953 5.2188 11.137l63.383 61.668c5.3164 5.1133 13.164 6.4219 19.848 3.2383l137.54-66.168c32.398-15.602 70.871-11.496 99.238 10.633l97.031 75.781h186.17"/>
 </g>
</svg>
