<?xml version="1.0" encoding="UTF-8"?>
<svg width="1200pt" height="1200pt" version="1.1" viewBox="0 0 1200 1200" xmlns="http://www.w3.org/2000/svg">
 <path d="m650 195.94v179.06h300.25c55.094 0 99.754 44.727 99.754 99.703v600.59c0 55.066-44.633 99.703-99.754 99.703h-700.49c-55.094 0-99.754-44.727-99.754-99.703v-600.59c0-55.066 44.633-99.703 99.754-99.703h300.25v-179.22l-56.473 56.473c-19.348 19.344-50.723 19.336-70.387-0.32812-19.523-19.523-19.41-51.297-0.32422-70.383l142.07-142.07c9.6172-9.6172 22.211-14.453 34.863-14.465l0.37891 0.14844c12.699 0.027343 25.324 4.8281 34.816 14.316l142.07 142.07c19.344 19.348 19.336 50.723-0.32813 70.383-19.527 19.527-51.301 19.414-70.383 0.32812zm-100 279.06h-300v600h700v-600h-300v200.07c0 27.574-22.191 49.926-50 49.926-27.613 0-50-22.375-50-49.926zm-150-100v100h400v-100zm150 0h100v100h-100z"/>
</svg>
